<?xml version="1.0" encoding="UTF-8"?>
<svg id="Layer_1" data-name="Layer 1" xmlns="http://www.w3.org/2000/svg" xmlns:xlink="http://www.w3.org/1999/xlink" version="1.1" viewBox="0 0 398 398">
  <defs>
    <style>
      .cls-1 {
        clip-path: url(#clippath);
      }

      .cls-2 {
        fill: none;
      }

      .cls-2, .cls-3 {
        stroke-width: 0px;
      }

      .cls-4 {
        clip-path: url(#clippath-1);
      }

      .cls-3 {
        fill: #ff8f3e;
      }
    </style>
    <clipPath id="clippath">
      <rect class="cls-2" width="398" height="398"/>
    </clipPath>
    <clipPath id="clippath-1">
      <rect class="cls-2" x="77.4" y="62.8" width="243" height="272"/>
    </clipPath>
  </defs>
  <g class="cls-1">
    <path class="cls-3" d="M199,0C253.9,0,303.7,22.3,339.7,58.3s58.3,85.8,58.3,140.7-22.3,104.7-58.3,140.7-85.8,58.3-140.7,58.3-104.7-22.3-140.7-58.3S0,253.9,0,199,22.3,94.3,58.3,58.3,144,0,199,0ZM324.1,73.9c-32-32-76.2-51.8-125.1-51.8s-93.1,19.8-125.1,51.8c-32,32-51.8,76.2-51.8,125.1s19.8,93.1,51.8,125.1c32,32,76.2,51.8,125.1,51.8s93.1-19.8,125.1-51.8c32-32,51.8-76.2,51.8-125.1s-19.8-93.1-51.8-125.1"/>
  </g>
  <g class="cls-4">
    <path class="cls-3" d="M198.8,199.1l-12-.3-12-.7-11.8-1.8-11.7-2.5-11.7-2.5-11.5-3.3-11.4-3.8-10.5-5.7-9.9-6.7-8.6-8.2-7-9.7-3.1-11.6,3.5-11.3,8.1-8.6,11.6-3.3,11.9,1.1,11.5,3.3,10.9,5,9.5,7.4,9.6,7.2,8.5,8.4,8.2,8.7,7.6,9.3,6.9,9.8,6.6,9.9,6.2,10.2h.5ZM199.3,199.4l-5.6,10.6-5.7,10.5-4.8,11-3.6,11.5-4,11.3-2.2,11.8-2,11.8-.4,11.9.3,11.9,2.1,11.8,5.5,10.7,8.7,8.2,11.3,3.1,11.2-3.2,8.9-7.9,5-10.9,2.4-11.7,1.3-11.9-.5-12-2.1-11.8-2.9-11.6-4.2-11.2-3.9-11.3-4.8-11-5.1-10.8-5.9-10.4h.7ZM198.8,199.5l-12-.5-11.9,1.8-11.9,1.3-11.7,2.4-11.7,2.5-11.6,2.9-11.4,3.8-10.2,6.3-10.2,6.1-8.5,8.4-7,9.7-3.3,11.6,2.9,11.7,8.8,8.2,11.6,3.3,11.8-1.6,11.4-3.2,10.6-5.4,9.8-6.8,9.7-7.1,8.8-8.1,8.2-8.8,7-9.7,8-9,6.1-10.3,6.6-10v.3ZM199.1,198.9l5.8-10.5,4.5-11.1,4.5-11,5.3-10.8,3.4-11.5,2-11.8,1.7-11.8,1.5-11.9-1.1-11.9-2.4-11.7-5.8-10.4-8.5-8.1-11.1-3.4-11.1,3.5-9,7.7-5.5,10.7-1.7,11.9-1.6,11.9,1.3,11.9,1.7,11.8,3.3,11.5,2.6,11.7,4.6,11.1,4.6,11.1,4.9,10.9,5.9,10.5h.2ZM199.1,199.2l6,10.4,6.9,9.8,7.3,9.5,8.3,8.7,7.4,9.5,9.1,7.8,9.1,7.7,9.8,7,11.2,4.3,11.1,4.7,12.1.6,11.2-4,8.7-7.8,3.3-11.4-3-11.7-7.5-9.3-8.5-8.2-9.9-6.6-10.6-5.4-11.1-4.4-11.5-3.4-11.6-3-11.9-1.4-11.8-2-11.9-1.3-12-.4v.5ZM199.2,199.4l12-.6,11.9-1.4,12-.7,11.7-2.7,11.6-2.9,11.6-2.8,11.2-4.3,10.5-5.8,9.7-6.9,9.2-7.6,6.3-10.1,2.9-11.4-2.1-11.8-9.3-7.4-11.2-3.6-11.9.7-11.3,3.8-10.9,4.8-9.6,7.1-9.4,7.3-8.6,8.3-8.8,8.2-6.7,10-8.1,8.9-6.8,9.9-6.5,10.1.5.8ZM199.2,198.7h-.5c0,.1.3.6.3.6l4.7,7.3-4.1-7.7-.5.3-.5-.3-4.1,8.3,4-8.4.2.4.2-.3-9-.5,9,.9v-.6c-.1,0,0,0,0,0l-4.5-7.6,4.1,7.9.5.3-.3-.8,4.9-7.9-4.4,8.2-.6.3.5-.3,9,.5-9-.8Z"/>
  </g>
</svg>