<svg xmlns="http://www.w3.org/2000/svg" xmlns:xlink="http://www.w3.org/1999/xlink" width="500" zoomAndPan="magnify" viewBox="0 0 375 374.999991" height="500" preserveAspectRatio="xMidYMid meet" version="1.0"><defs><g/><clipPath id="2c10786ab5"><path d="M 119 112 L 267 112 L 267 262 L 119 262 Z M 119 112 " clip-rule="nonzero"/></clipPath><clipPath id="924be77c30"><path d="M 100.4375 135.761719 L 244.746094 94.828125 L 285.675781 239.136719 L 141.367188 280.066406 Z M 100.4375 135.761719 " clip-rule="nonzero"/></clipPath><clipPath id="c7413dec5a"><path d="M 100.4375 135.761719 L 244.746094 94.828125 L 285.675781 239.136719 L 141.367188 280.066406 Z M 100.4375 135.761719 " clip-rule="nonzero"/></clipPath><clipPath id="42620cad0f"><path d="M 113 112 L 262 112 L 262 262 L 113 262 Z M 113 112 " clip-rule="nonzero"/></clipPath><clipPath id="4aa1b2bb48"><path d="M 95.25 135.761719 L 239.558594 94.828125 L 280.488281 239.136719 L 136.179688 280.066406 Z M 95.25 135.761719 " clip-rule="nonzero"/></clipPath><clipPath id="9445a7378c"><path d="M 95.25 135.761719 L 239.558594 94.828125 L 280.488281 239.136719 L 136.179688 280.066406 Z M 95.25 135.761719 " clip-rule="nonzero"/></clipPath></defs><g clip-path="url(#2c10786ab5)"><g clip-path="url(#924be77c30)"><g clip-path="url(#c7413dec5a)"><path fill="#4c97ec" d="M 257.4375 175.226562 C 262.273438 170.335938 263.589844 162.90625 260.171875 156.980469 C 257.414062 152.207031 252.28125 149.613281 246.910156 149.707031 C 249.339844 143.261719 247.53125 135.933594 242.007812 131.910156 C 237.554688 128.667969 231.816406 128.394531 226.953125 130.667969 C 226.554688 123.785156 221.929688 117.824219 215.257812 116.398438 C 209.878906 115.25 204.527344 117.339844 201.011719 121.402344 C 197.855469 115.269531 191.21875 111.707031 184.550781 113.128906 C 179.175781 114.269531 175.136719 118.363281 173.574219 123.511719 C 168.207031 119.195312 160.703125 118.644531 155.191406 122.660156 C 150.75 125.902344 148.726562 131.289062 149.386719 136.632812 C 142.734375 134.875 135.664062 137.433594 132.261719 143.355469 C 129.519531 148.128906 129.855469 153.878906 132.628906 158.496094 C 125.839844 159.601562 120.421875 164.824219 119.71875 171.628906 C 119.152344 177.109375 121.792969 182.230469 126.195312 185.320312 C 120.449219 189.097656 117.621094 196.085938 119.738281 202.589844 C 121.445312 207.835938 125.933594 211.4375 131.203125 212.46875 C 127.492188 218.265625 127.746094 225.808594 132.316406 230.890625 C 135.996094 234.988281 141.554688 236.453125 146.789062 235.246094 C 145.75 242.058594 149.039062 248.851562 155.273438 251.636719 C 160.296875 253.878906 165.964844 252.953125 170.25 249.714844 C 172.066406 256.367188 177.820312 261.234375 184.640625 261.238281 C 190.140625 261.242188 194.9375 258.082031 197.535156 253.371094 C 201.890625 258.714844 209.121094 260.816406 215.347656 258.035156 C 220.144531 255.894531 223.1875 251.367188 223.847656 246.285156 C 224.089844 246.160156 224.332031 246.027344 224.574219 245.898438 C 230.585938 248.617188 237.675781 247.488281 242.074219 242.585938 C 245.625 238.628906 246.546875 233.179688 245.023438 228.21875 C 245.148438 228.054688 245.273438 227.886719 245.394531 227.722656 C 252.054688 227.832031 258.164062 223.890625 260.207031 217.558594 C 261.898438 212.3125 260.375 206.757812 256.710938 202.816406 C 263.117188 200.320312 267.332031 194.078125 266.609375 187.277344 C 266.027344 181.792969 262.382812 177.332031 257.4375 175.226562 " fill-opacity="1" fill-rule="nonzero"/></g></g></g><g clip-path="url(#42620cad0f)"><g clip-path="url(#4aa1b2bb48)"><g clip-path="url(#9445a7378c)"><path fill="#53c9ee" d="M 252.246094 175.226562 C 257.082031 170.335938 258.398438 162.90625 254.980469 156.980469 C 252.226562 152.207031 247.089844 149.613281 241.722656 149.707031 C 244.152344 143.261719 242.339844 135.933594 236.816406 131.910156 C 232.367188 128.667969 226.625 128.394531 221.761719 130.667969 C 221.367188 123.785156 216.742188 117.824219 210.070312 116.398438 C 204.691406 115.25 199.339844 117.339844 195.824219 121.402344 C 192.667969 115.269531 186.03125 111.707031 179.359375 113.128906 C 173.984375 114.269531 169.949219 118.363281 168.386719 123.511719 C 163.019531 119.195312 155.515625 118.644531 150.003906 122.660156 C 145.558594 125.902344 143.535156 131.289062 144.195312 136.632812 C 137.546875 134.875 130.472656 137.433594 127.070312 143.355469 C 124.328125 148.128906 124.664062 153.878906 127.4375 158.496094 C 120.652344 159.601562 115.234375 164.824219 114.53125 171.628906 C 113.964844 177.109375 116.601562 182.230469 121.007812 185.320312 C 115.261719 189.097656 112.433594 196.085938 114.546875 202.589844 C 116.253906 207.835938 120.742188 211.4375 126.015625 212.46875 C 122.300781 218.265625 122.554688 225.808594 127.125 230.890625 C 130.808594 234.988281 136.367188 236.453125 141.597656 235.246094 C 140.558594 242.058594 143.847656 248.851562 150.082031 251.636719 C 155.109375 253.878906 160.777344 252.953125 165.058594 249.714844 C 166.875 256.367188 172.632812 261.234375 179.453125 261.238281 C 184.949219 261.242188 189.746094 258.082031 192.34375 253.371094 C 196.699219 258.714844 203.929688 260.816406 210.15625 258.035156 C 214.957031 255.894531 218 251.367188 218.660156 246.285156 C 218.902344 246.160156 219.144531 246.027344 219.382812 245.898438 C 225.394531 248.617188 232.488281 247.488281 236.886719 242.585938 C 240.433594 238.628906 241.359375 233.179688 239.835938 228.21875 C 239.960938 228.054688 240.082031 227.886719 240.203125 227.722656 C 246.863281 227.832031 252.976562 223.890625 255.019531 217.558594 C 256.710938 212.3125 255.1875 206.757812 251.523438 202.816406 C 257.925781 200.320312 262.140625 194.078125 261.417969 187.277344 C 260.835938 181.792969 257.195312 177.332031 252.246094 175.226562 " fill-opacity="1" fill-rule="nonzero"/></g></g></g><g fill="#daee68" fill-opacity="1"><g transform="translate(149.062253, 227.143295)"><g><path d="M 5.5 -21.640625 L 6.546875 -15.0625 L 18.078125 -16.890625 L 18.796875 -12.28125 L 7.265625 -10.453125 L 8.703125 -1.375 L 2.953125 -0.46875 L -0.984375 -25.359375 L 17.828125 -28.328125 L 18.5625 -23.703125 Z M 5.5 -21.640625 "/></g></g></g><g fill="#daee68" fill-opacity="1"><g transform="translate(171.784424, 223.553185)"><g><path d="M 21.484375 -8.140625 L 22.21875 -3.515625 L 2.953125 -0.46875 L -0.984375 -25.359375 L 17.828125 -28.328125 L 18.5625 -23.703125 L 5.46875 -21.640625 L 6.328125 -16.234375 L 17.890625 -18.0625 L 18.59375 -13.59375 L 7.03125 -11.765625 L 7.9375 -6 Z M 21.484375 -8.140625 "/></g></g></g><g fill="#daee68" fill-opacity="1"><g transform="translate(195.644487, 219.783289)"><g><path d="M 11.1875 -1.328125 C 9.21875 -1.015625 7.273438 -0.976562 5.359375 -1.21875 C 3.441406 -1.46875 1.859375 -1.929688 0.609375 -2.609375 L 1.875 -7.265625 C 3.0625 -6.648438 4.429688 -6.222656 5.984375 -5.984375 C 7.535156 -5.742188 9.039062 -5.738281 10.5 -5.96875 C 12.132812 -6.226562 13.300781 -6.660156 14 -7.265625 C 14.707031 -7.867188 15 -8.578125 14.875 -9.390625 C 14.78125 -9.972656 14.472656 -10.421875 13.953125 -10.734375 C 13.429688 -11.054688 12.789062 -11.273438 12.03125 -11.390625 C 11.269531 -11.515625 10.25 -11.628906 8.96875 -11.734375 C 7 -11.878906 5.375 -12.078125 4.09375 -12.328125 C 2.820312 -12.585938 1.675781 -13.148438 0.65625 -14.015625 C -0.363281 -14.878906 -1.007812 -16.140625 -1.28125 -17.796875 C -1.507812 -19.242188 -1.320312 -20.617188 -0.71875 -21.921875 C -0.125 -23.222656 0.898438 -24.335938 2.359375 -25.265625 C 3.828125 -26.203125 5.695312 -26.847656 7.96875 -27.203125 C 9.570312 -27.453125 11.160156 -27.507812 12.734375 -27.375 C 14.304688 -27.238281 15.71875 -26.90625 16.96875 -26.375 L 15.890625 -21.71875 C 13.390625 -22.664062 10.988281 -22.957031 8.6875 -22.59375 C 7.0625 -22.332031 5.90625 -21.878906 5.21875 -21.234375 C 4.53125 -20.597656 4.253906 -19.851562 4.390625 -19 C 4.523438 -18.144531 5.070312 -17.578125 6.03125 -17.296875 C 6.988281 -17.023438 8.410156 -16.832031 10.296875 -16.71875 C 12.265625 -16.5625 13.890625 -16.351562 15.171875 -16.09375 C 16.453125 -15.84375 17.597656 -15.296875 18.609375 -14.453125 C 19.628906 -13.617188 20.269531 -12.367188 20.53125 -10.703125 C 20.757812 -9.285156 20.566406 -7.925781 19.953125 -6.625 C 19.347656 -5.332031 18.300781 -4.210938 16.8125 -3.265625 C 15.332031 -2.328125 13.457031 -1.679688 11.1875 -1.328125 Z M 11.1875 -1.328125 "/></g></g></g><g fill="#daee68" fill-opacity="1"><g transform="translate(218.331107, 216.198796)"><g><path d="M 4.921875 -21.484375 L -3.046875 -20.21875 L -3.796875 -24.90625 L 17.90625 -28.34375 L 18.65625 -23.65625 L 10.6875 -22.390625 L 13.875 -2.1875 L 8.109375 -1.28125 Z M 4.921875 -21.484375 "/></g></g></g><g fill="#f42d85" fill-opacity="1"><g transform="translate(141.455685, 196.705277)"><g><path d="M 6.4375 -25.25 L 7.640625 -17.578125 L 21.0625 -19.703125 L 21.921875 -14.3125 L 8.5 -12.1875 L 10.171875 -1.609375 L 3.4375 -0.546875 L -1.15625 -29.59375 L 20.796875 -33.0625 L 21.65625 -27.65625 Z M 6.4375 -25.25 "/></g></g></g><g fill="#f42d85" fill-opacity="1"><g transform="translate(167.964832, 192.516824)"><g><path d="M 17.578125 -2.265625 C 14.566406 -1.785156 11.75 -2.003906 9.125 -2.921875 C 6.5 -3.835938 4.320312 -5.328125 2.59375 -7.390625 C 0.863281 -9.460938 -0.222656 -11.921875 -0.671875 -14.765625 C -1.117188 -17.617188 -0.84375 -20.296875 0.15625 -22.796875 C 1.164062 -25.296875 2.773438 -27.382812 4.984375 -29.0625 C 7.203125 -30.75 9.816406 -31.832031 12.828125 -32.3125 C 15.835938 -32.789062 18.648438 -32.566406 21.265625 -31.640625 C 23.890625 -30.722656 26.070312 -29.234375 27.8125 -27.171875 C 29.550781 -25.109375 30.644531 -22.648438 31.09375 -19.796875 C 31.539062 -16.953125 31.253906 -14.273438 30.234375 -11.765625 C 29.222656 -9.265625 27.613281 -7.175781 25.40625 -5.5 C 23.195312 -3.820312 20.585938 -2.742188 17.578125 -2.265625 Z M 16.671875 -8 C 18.390625 -8.269531 19.878906 -8.90625 21.140625 -9.90625 C 22.398438 -10.914062 23.3125 -12.1875 23.875 -13.71875 C 24.4375 -15.257812 24.578125 -16.925781 24.296875 -18.71875 C 24.015625 -20.519531 23.367188 -22.0625 22.359375 -23.34375 C 21.347656 -24.632812 20.085938 -25.5625 18.578125 -26.125 C 17.066406 -26.695312 15.453125 -26.847656 13.734375 -26.578125 C 12.023438 -26.304688 10.539062 -25.664062 9.28125 -24.65625 C 8.019531 -23.65625 7.109375 -22.382812 6.546875 -20.84375 C 5.984375 -19.3125 5.84375 -17.644531 6.125 -15.84375 C 6.40625 -14.050781 7.050781 -12.507812 8.0625 -11.21875 C 9.070312 -9.9375 10.332031 -9.007812 11.84375 -8.4375 C 13.351562 -7.875 14.960938 -7.726562 16.671875 -8 Z M 16.671875 -8 "/></g></g></g><g fill="#f42d85" fill-opacity="1"><g transform="translate(202.978475, 186.984658)"><g><path d="M 17.578125 -2.265625 C 14.566406 -1.785156 11.75 -2.003906 9.125 -2.921875 C 6.5 -3.835938 4.320312 -5.328125 2.59375 -7.390625 C 0.863281 -9.460938 -0.222656 -11.921875 -0.671875 -14.765625 C -1.117188 -17.617188 -0.84375 -20.296875 0.15625 -22.796875 C 1.164062 -25.296875 2.773438 -27.382812 4.984375 -29.0625 C 7.203125 -30.75 9.816406 -31.832031 12.828125 -32.3125 C 15.835938 -32.789062 18.648438 -32.566406 21.265625 -31.640625 C 23.890625 -30.722656 26.070312 -29.234375 27.8125 -27.171875 C 29.550781 -25.109375 30.644531 -22.648438 31.09375 -19.796875 C 31.539062 -16.953125 31.253906 -14.273438 30.234375 -11.765625 C 29.222656 -9.265625 27.613281 -7.175781 25.40625 -5.5 C 23.195312 -3.820312 20.585938 -2.742188 17.578125 -2.265625 Z M 16.671875 -8 C 18.390625 -8.269531 19.878906 -8.90625 21.140625 -9.90625 C 22.398438 -10.914062 23.3125 -12.1875 23.875 -13.71875 C 24.4375 -15.257812 24.578125 -16.925781 24.296875 -18.71875 C 24.015625 -20.519531 23.367188 -22.0625 22.359375 -23.34375 C 21.347656 -24.632812 20.085938 -25.5625 18.578125 -26.125 C 17.066406 -26.695312 15.453125 -26.847656 13.734375 -26.578125 C 12.023438 -26.304688 10.539062 -25.664062 9.28125 -24.65625 C 8.019531 -23.65625 7.109375 -22.382812 6.546875 -20.84375 C 5.984375 -19.3125 5.84375 -17.644531 6.125 -15.84375 C 6.40625 -14.050781 7.050781 -12.507812 8.0625 -11.21875 C 9.070312 -9.9375 10.332031 -9.007812 11.84375 -8.4375 C 13.351562 -7.875 14.960938 -7.726562 16.671875 -8 Z M 16.671875 -8 "/></g></g></g></svg>