<?xml version="1.0" encoding="UTF-8"?>
<svg id="Layer_1" data-name="Layer 1" xmlns="http://www.w3.org/2000/svg" xmlns:xlink="http://www.w3.org/1999/xlink" version="1.1" viewBox="0 0 398 398">
  <defs>
    <style>
      .cls-1 {
        clip-path: url(#clippath);
      }

      .cls-2 {
        fill: none;
      }

      .cls-2, .cls-3, .cls-4 {
        stroke-width: 0px;
      }

      .cls-3 {
        fill: #b0aeae;
      }

      .cls-4 {
        fill: #ff97c5;
      }
    </style>
    <clipPath id="clippath">
      <rect class="cls-2" width="398" height="398"/>
    </clipPath>
  </defs>
  <g class="cls-1">
    <path class="cls-4" d="M199,0C253.9,0,303.7,22.3,339.7,58.3s58.3,85.8,58.3,140.7-22.3,104.7-58.3,140.7-85.8,58.3-140.7,58.3-104.7-22.3-140.7-58.3S0,253.9,0,199,22.3,94.3,58.3,58.3,144,0,199,0ZM324.1,73.9c-32-32-76.2-51.8-125.1-51.8s-93.1,19.8-125.1,51.8c-32,32-51.8,76.2-51.8,125.1s19.8,93.1,51.8,125.1c32,32,76.2,51.8,125.1,51.8s93.1-19.8,125.1-51.8c32-32,51.8-76.2,51.8-125.1s-19.8-93.1-51.8-125.1"/>
  </g>
  <path class="cls-4" d="M312.1,248l-29.7-.8c-8.5-.2-14.7,8.2-11.7,16.2l10,28c4.1,11.4-9.2,21.1-18.9,13.7l-23.6-18.1c-6.7-5.2-16.6-2-19,6.2l-8.4,28.5c-3.4,11.6-19.9,11.6-23.4,0l-8.4-28.5c-2.4-8.2-12.3-11.4-19-6.2l-23.6,18.1c-9.6,7.4-22.9-2.3-18.9-13.7l10-28c2.8-8.1-3.3-16.4-11.7-16.2l-29.7.8c-12.1.3-17.2-15.3-7.2-22.2l24.5-16.9c7.1-4.8,7.1-15.3,0-20.1l-24.5-16.7c-10-6.8-4.9-22.6,7.2-22.2l29.7.8c8.5.2,14.7-8.2,11.7-16.2l-10-28c-4.1-11.4,9.2-21.1,18.9-13.7l23.6,18.1c6.7,5.2,16.6,2,19-6.2l8.4-28.5c3.4-11.6,19.9-11.6,23.4,0l8.4,28.5c2.4,8.2,12.3,11.4,19,6.2l23.6-18.1c9.6-7.4,22.9,2.3,18.9,13.7l-10,28c-2.8,8.1,3.3,16.4,11.7,16.2l29.7-.8c12.1-.3,17.2,15.3,7.2,22.2l-24.5,16.9c-7.1,4.8-7.1,15.3,0,20.1l24.5,16.9c10,6.7,5,22.4-7.2,22.1Z"/>
  <path class="cls-3" d="M319.6,225.4l-24.5-16.9c-3.2-2.2-5-5.7-5-9.6s1.8-7.4,5-9.6l24.5-16.9c4.8-3.3,6.7-8.9,4.9-14.5-1.8-5.5-6.7-9-12.4-8.8l-29.7.8c-3.9.1-7.4-1.6-9.7-4.8-2.3-3.2-2.8-7.1-1.6-10.7l10-28c1.9-5.5.1-11.2-4.6-14.6-4.7-3.4-10.7-3.3-15.3.2l-23.6,18.1c-3.1,2.4-7,3.1-10.6,1.8-3.6-1.3-6.4-4-7.5-7.7l-8.4-28.5c-1.6-5.6-6.4-9.1-12.2-9.1s-10.6,3.5-12.2,9.1l-8.4,28.5c-1.1,3.8-3.9,6.5-7.5,7.7-3.6,1.3-7.5.6-10.6-1.8l-23.6-17.9c-4.6-3.5-10.6-3.6-15.3-.2-4.7,3.4-6.5,9.1-4.6,14.6l10,28c1.3,3.6.7,7.5-1.6,10.7-2.3,3.2-5.8,4.9-9.7,4.8l-29.7-.8c-5.8-.1-10.7,3.3-12.4,8.8-1.8,5.5.1,11.2,4.9,14.5l24.5,16.9c3.2,2.2,5,5.7,5,9.6s-1.8,7.4-5,9.6l-24.4,16.6c-4.8,3.3-6.7,8.9-4.9,14.5,1.8,5.5,6.7,8.9,12.4,8.8l29.7-.8c3.9-.1,7.4,1.6,9.7,4.8,2.3,3.2,2.8,7.1,1.6,10.7l-10,28c-1.9,5.5-.1,11.2,4.6,14.6,4.7,3.4,10.7,3.3,15.3-.2l23.6-18.1c3.1-2.4,6.9-3.1,10.6-1.8,3.6,1.3,6.4,4,7.5,7.7l8.4,28.5c1.6,5.6,6.4,9.1,12.2,9.1s10.6-3.5,12.2-9.1l8.4-28.5c1.1-3.8,3.9-6.5,7.5-7.7,3.6-1.3,7.5-.6,10.6,1.8l23.6,18.1c4.6,3.5,10.6,3.6,15.3.2,4.7-3.4,6.5-9.1,4.6-14.6l-10-28c-1.3-3.6-.7-7.5,1.6-10.7,2.3-3.2,5.8-4.9,9.7-4.8l29.7.8c5.8.1,10.7-3.3,12.4-8.8,1.7-5.6-.2-11.2-5-14.5ZM323.5,239.5c-1.6,5-6.2,8.1-11.3,8l-29.7-.8c-4.2-.1-8.2,1.8-10.6,5.2-2.5,3.4-3.1,7.8-1.7,11.7l10,28c1.7,5,.1,10.1-4.1,13.2-4.2,3.1-9.7,3-13.9-.2l-23.6-18.1c-3.3-2.5-7.8-3.3-11.7-2.1-4,1.3-7.1,4.4-8.3,8.5l-8.4,28.5c-1.5,5-5.8,8.3-11.2,8.3s-9.6-3.3-11.1-8.3l-8.4-28.5c-1.1-4-4.3-7.2-8.3-8.5-1.3-.5-2.6-.6-4-.6-2.7,0-5.5.9-7.7,2.6l-23.6,18.1c-4.2,3.2-9.6,3.3-13.9.2-4.2-3.1-5.8-8.3-4.1-13.2l10-28c1.4-4,.8-8.3-1.7-11.7-2.5-3.4-6.5-5.4-10.6-5.2l-29.7.8c-5.2.1-9.7-3-11.3-8s.1-10.1,4.4-13.1l24.6-16.9c3.4-2.4,5.6-6.3,5.6-10.5s-2-8.1-5.6-10.5l-24.6-16.9c-4.3-3-6-8.1-4.4-13.1,1.6-5,6-8.2,11.3-8l29.7.8c4.2.1,8.2-1.8,10.6-5.2,2.4-3.4,3.1-7.7,1.7-11.7l-10-28c-1.7-5-.1-10.1,4.1-13.2,4.2-3.1,9.7-3,13.9.2l23.7,18c3.3,2.5,7.8,3.3,11.7,2.1,4-1.3,7.1-4.4,8.3-8.5l8.4-28.5c1.5-5,5.8-8.3,11.1-8.3s9.6,3.3,11.2,8.3l8.4,28.5c1.1,4,4.3,7.2,8.3,8.5,4,1.3,8.3.6,11.7-2.1l23.6-18.1c4.2-3.2,9.6-3.3,13.9-.2,4.2,3.1,5.9,8.3,4.1,13.2l-10,28c-1.4,4-.8,8.3,1.7,11.7,2.5,3.4,6.5,5.4,10.6,5.2l29.7-.8c5.2-.1,9.7,3,11.3,8,1.6,5-.1,10.1-4.4,13.1l-24.5,16.9c-3.4,2.4-5.6,6.3-5.6,10.5s2.1,8.1,5.6,10.5l24.5,16.9c4.2,3,5.9,8.2,4.3,13.2Z"/>
</svg>