<?xml version="1.0" encoding="UTF-8"?>
<svg id="Layer_1" data-name="Layer 1" xmlns="http://www.w3.org/2000/svg" xmlns:xlink="http://www.w3.org/1999/xlink" version="1.1" viewBox="0 0 398 398">
  <defs>
    <style>
      .cls-1 {
        clip-path: url(#clippath);
      }

      .cls-2 {
        fill: none;
      }

      .cls-2, .cls-3 {
        stroke-width: 0px;
      }

      .cls-3 {
        fill: #26aa05;
      }

      .cls-4 {
        clip-path: url(#clippath-1);
      }
    </style>
    <clipPath id="clippath">
      <rect class="cls-2" width="398" height="398"/>
    </clipPath>
    <clipPath id="clippath-1">
      <rect class="cls-2" x="52.7" y="68.7" width="291.9" height="270.7"/>
    </clipPath>
  </defs>
  <g class="cls-1">
    <path class="cls-3" d="M199,0C253.9,0,303.7,22.3,339.7,58.3s58.3,85.8,58.3,140.7-22.3,104.7-58.3,140.7-85.8,58.3-140.7,58.3-104.7-22.3-140.7-58.3S0,253.9,0,199,22.3,94.3,58.3,58.3,144,0,199,0ZM324.1,73.9c-32-32-76.2-51.8-125.1-51.8s-93.1,19.8-125.1,51.8c-32,32-51.8,76.2-51.8,125.1s19.8,93.1,51.8,125.1c32,32,76.2,51.8,125.1,51.8s93.1-19.8,125.1-51.8c32-32,51.8-76.2,51.8-125.1s-19.8-93.1-51.8-125.1"/>
  </g>
  <g class="cls-4">
    <path class="cls-3" d="M232.6,88c17.2-9.4,39.4-6,56,4.5,16.6,10.5,28.4,27.2,37.7,44.4,11.9,22,20.8,47.3,15.6,71.7s-28.7,46.2-53.3,41.8c-27-4.8-43.2-36.8-70.4-40.7-1,15.2-1.9,30.4-2.9,45.6-1.9,30.4-7.5,66.5-35.1,79.5-10.9,5.2-25,5-34.2-2.8-7-6-10.2-15.3-11.9-24.3-3.8-20.9-1-43,7.9-62.3-9.6-2.6-19.6,1.1-29.3,3-9.8,1.8-21.8.8-26.8-7.8-4.5-7.7-1.1-17.4,3-25.4,10.1-19.6,23.8-37.4,40.2-52.2-19.2-9.2-38.3-18.3-57.5-27.5-8.6-4.1-18.5-10.1-18.8-19.6-.2-7.5,5.8-13.6,11.7-18.2,45.3-35.2,113.2-37.7,168-9.8Z"/>
  </g>
</svg>