<?xml version="1.0" encoding="UTF-8"?>
<svg id="Layer_1" data-name="Layer 1" xmlns="http://www.w3.org/2000/svg" xmlns:xlink="http://www.w3.org/1999/xlink" version="1.1" viewBox="0 0 398 398">
  <defs>
    <style>
      .cls-1 {
        clip-path: url(#clippath);
      }

      .cls-2 {
        fill: none;
      }

      .cls-2, .cls-3 {
        stroke-width: 0px;
      }

      .cls-4 {
        clip-path: url(#clippath-1);
      }

      .cls-3 {
        fill: #00e5ec;
      }
    </style>
    <clipPath id="clippath">
      <rect class="cls-2" width="398" height="398"/>
    </clipPath>
    <clipPath id="clippath-1">
      <rect class="cls-2" x="51.8" y="52.3" width="296" height="295"/>
    </clipPath>
  </defs>
  <g class="cls-1">
    <path class="cls-3" d="M199,0C253.9,0,303.7,22.3,339.7,58.3s58.3,85.8,58.3,140.7-22.3,104.7-58.3,140.7-85.8,58.3-140.7,58.3-104.7-22.3-140.7-58.3S0,253.9,0,199,22.3,94.3,58.3,58.3,144,0,199,0ZM324.1,73.9c-32-32-76.2-51.8-125.1-51.8s-93.1,19.8-125.1,51.8c-32,32-51.8,76.2-51.8,125.1s19.8,93.1,51.8,125.1c32,32,76.2,51.8,125.1,51.8s93.1-19.8,125.1-51.8c32-32,51.8-76.2,51.8-125.1s-19.8-93.1-51.8-125.1"/>
  </g>
  <g class="cls-4">
    <path class="cls-3" d="M203.4,204.5l2.1,10.6,3.8,10.2,2.1,10.6,2,10.7.6,10.9,2.5,10.6.5,10.9,1.1,10.8-1.3,10.8.8,10.9-2.2,10.7-2.5,10.6-5.2,9.5-8.4,5.4-8.2-5.5-5.2-9.4-2.3-10.6-1.3-10.7-.6-10.8.3-10.8v-10.8c0,0,.9-10.8.9-10.8l.8-10.8,2.5-10.6,1.7-10.7,2.9-10.5,2.3-10.6,2.8-10.9-10.9,3-10.5,2.6-10.5,2.8-10.6,2.2-10.8,1-10.7,1.6-10.9.4-10.8.3-10.8.5-10.8-1.1-10.8-.7-10.6-2.4-9.3-5.6-5.7-8.2,5.6-8.4,9.7-4.5,10.4-2.9,10.7-2.2,10.9.3h10.8s10.9-.6,10.9-.6l10.8,1,10.6,2.8,10.8.9,10.7,1.7,10.5,2.7,10.4,3,10.8,2.5-3.3-10.6-1.5-10.8-2.3-10.6-2.3-10.6-2.3-10.6-1.7-10.7-.6-10.9v-10.9s.2-10.8.2-10.8l.2-10.8.9-10.8,2.5-10.6,5.3-9.5,8.7-6.3,8.8,6.2,4.2,10,2.4,10.5,1.5,10.7,1.5,10.8v10.9c0,0-.4,10.9-.4,10.9l-1.7,10.7-.5,10.9-1.9,10.7-2.6,10.5-2.4,10.6-1.6,10.8-2.9,9.9,10.1-1.9,10.6-2.3,10.3-3.6,10.9-.6,10.7-1.8,10.6-2.7,10.8-.9,10.9-.2,10.8.8h10.8s10.6,2,10.6,2l10.6,2.1,10,4.3,6.1,9.2-6.4,8.9-9.7,4.9-10.7,2.2-10.8.8-10.8,1.3-10.8.3-10.8-.8-10.8-1.3-10.7-1.7-10.7-1.6-10.9-.8-10.5-2.6-10.6-2.2-10.2-3.3Z"/>
  </g>
</svg>