<?xml version="1.0" encoding="UTF-8"?>
<svg id="Layer_1" data-name="Layer 1" xmlns="http://www.w3.org/2000/svg" xmlns:xlink="http://www.w3.org/1999/xlink" version="1.1" viewBox="0 0 398 398">
  <defs>
    <style>
      .cls-1 {
        clip-path: url(#clippath);
      }

      .cls-2 {
        fill: none;
      }

      .cls-2, .cls-3 {
        stroke-width: 0px;
      }

      .cls-4 {
        clip-path: url(#clippath-1);
      }

      .cls-3 {
        fill: #8d4ece;
      }
    </style>
    <clipPath id="clippath">
      <rect class="cls-2" width="398" height="398"/>
    </clipPath>
    <clipPath id="clippath-1">
      <rect class="cls-2" x="69.5" y="74.3" width="259" height="251"/>
    </clipPath>
  </defs>
  <g class="cls-1">
    <path class="cls-3" d="M199,0C253.9,0,303.7,22.3,339.7,58.3s58.3,85.8,58.3,140.7-22.3,104.7-58.3,140.7-85.8,58.3-140.7,58.3-104.7-22.3-140.7-58.3S0,253.9,0,199,22.3,94.3,58.3,58.3,144,0,199,0ZM324.1,73.9c-32-32-76.2-51.8-125.1-51.8s-93.1,19.8-125.1,51.8c-32,32-51.8,76.2-51.8,125.1s19.8,93.1,51.8,125.1c32,32,76.2,51.8,125.1,51.8s93.1-19.8,125.1-51.8c32-32,51.8-76.2,51.8-125.1s-19.8-93.1-51.8-125.1"/>
  </g>
  <g class="cls-4">
    <path class="cls-3" d="M252.4,148.8l-5.7,6.6-4.7,6.3-4.7,4.3.8,4.1,5.1-1.6,7.5-2.7,7.4-3.1,7.9-1.1,7.9-.8,7.7-.5,7.6.9,7.4,2,7.5,2.1,6.5,4.2,5.5,5.4,5.2,5.6,3.3,6.8,2.9,7.1,1.1,7.6-.6,7.7-2.8,7.2-5.5,7.2-6.6,6.2-7.3,3.1-7.6,2.1-7.8-.5-7.2-.8,3.8,7.4,3.7,8,3.2,8.2,1.8,8.6v8.8c-.1,0-.7,8.7-.7,8.7l-1.7,8.6-3.3,8.1-4.4,7.6-6.2,6.2-6.9,5.4-7.9,4-8.4,1.3-8.5.8-8.4-1.4-7.8-2.5-7.8-2.8-6.7-4.8-6.1-5.5-4.6-6.7-3.2-7.5-2.3-7.9.6-8.6-3.9,8.4-4.9,7.5-5.6,7-7.2,5.5-7.5,5-8.4,3.3-8.9,1.6-8.9.3-8.9-.2-8.9-1.6-8.5-3-7.9-4.5-5.6-5.8-5.8-5.4-4.6-6.5-3.5-8.5-2.1-9v-9.2c0,0,1.9-8.9,1.9-8.9l2.4-8.8,2.5-8.8,4.4-8,4.7-7.2-7.1,2.8h-8.2s-7.5-3.2-7.5-3.2l-7.2-4.2-4.3-7.2-2-8.2,1.3-8.3,2.8-7.9,5.1-6.6,6.1-5.8,7.8-3.3,8.1-2,8.3-.9,8.3,1.3,8.1,1.7-5.4-5.8-5.1-6.2-4.4-6.8-3.3-7.4-2.2-7.8-1.1-8,1-8,2-7.6,3.2-7.2,4.7-6.4,5.9-5.3,6.6-4.5,7.7-2.2,8-.4,7.9,1.4,6.8,4.2,6.1,5,5.4,5.8,4.8,6.4,3.6,7.1,2.7,7.6,1.8,7.8,2,7.8,1.2,8.1,1-8.7.6-8.5,1.4-8.4,2.7-8.1,2.2-8.3,4.3-7.4,4.5-7.2,6.2-5.8,6.9-4.8,7.8-3.1,8.2-1.8,8.4.7,7.6,2.5,6.3,5,5.9,5.5,3.4,7.4,2.2,7.7.8,7.9v8c-.1,0-1.9,7.8-1.9,7.8l-2.9,7.5-3,7.5-5.4,6.9Z"/>
  </g>
</svg>